# xmcd
#
# Track frame offsets:
# 150
# 16188
# 30981
# 46367
# 65853
# 82461
# 103961
# 115145
# 131347
# 145732
#
# Disc length: 2141 seconds
#
# Revision: 0
# Processed by: cddbd v1.4PL0 Copyright (c) Steve Scherf et al.
# Submitted via: Audion 2.6.0 (http://www.panic.com/audion/)
#
DISCID=8a085b0a
DTITLE=The Drews - Strategically Interrupted Silence
DYEAR=1900
DGENRE=
TTITLE0=Lager Drinkin Laggard
TTITLE1=Flight 101
TTITLE2=Lloyd's Eyes
TTITLE3=Bill Burroughs Blues
TTITLE4=Ain't Got No Friends
TTITLE5=Between The Lines
TTITLE6=Gator Walk
TTITLE7=Lucky Ones
TTITLE8=Stairwells
TTITLE9=Snattlerakes
EXTD=
EXTT0=
EXTT1=
EXTT2=
EXTT3=
EXTT4=
EXTT5=
EXTT6=
EXTT7=
EXTT8=
EXTT9=
PLAYORDER=
